HIERARCHY
ROOT Hips
{
	OFFSET -0.001795 -0.223333 0.028219
	CHANNELS 6 Xposition Yposition Zposition Zrotation Yrotation Xrotation 
	JOINT LeftUpLeg
	{
		OFFSET 0.069520 -0.091406 -0.006815
		CHANNELS 3 Zrotation Yrotation Xrotation
		JOINT LeftLeg
		{
			OFFSET 0.034277 -0.375199 -0.004496
			CHANNELS 3 Zrotation Yrotation Xrotation
			JOINT LeftFoot
			{
				OFFSET -0.013596 -0.397961 -0.043693
				CHANNELS 3 Zrotation Yrotation Xrotation
				JOINT LeftToe
				{
					OFFSET 0.026358 -0.055791 0.119288
					CHANNELS 3 Zrotation Yrotation Xrotation
					End Site
					{
						OFFSET 0.000000 0.000000 0.000000
					}
				}
			}
		}
	}
	JOINT RightUpLeg
	{
		OFFSET -0.067670 -0.090522 -0.004320
		CHANNELS 3 Zrotation Yrotation Xrotation
		JOINT RightLeg
		{
			OFFSET -0.038290 -0.382569 -0.008850
			CHANNELS 3 Zrotation Yrotation Xrotation
			JOINT RightFoot
			{
				OFFSET 0.015774 -0.398415 -0.042312
				CHANNELS 3 Zrotation Yrotation Xrotation
				JOINT RightToe
				{
					OFFSET -0.025372 -0.048144 0.123348
					CHANNELS 3 Zrotation Yrotation Xrotation
					End Site
					{
						OFFSET 0.000000 0.000000 0.000000
					}
				}
			}
		}
	}
	JOINT Spine
	{
		OFFSET -0.002533 0.108963 -0.026696
		CHANNELS 3 Zrotation Yrotation Xrotation
		JOINT Spine1
		{
			OFFSET 0.005487 0.135180 0.001092
			CHANNELS 3 Zrotation Yrotation Xrotation
			JOINT Spine2
			{
				OFFSET 0.001457 0.052922 0.025425
				CHANNELS 3 Zrotation Yrotation Xrotation
				JOINT Neck
				{
					OFFSET -0.002778 0.213870 -0.042857
					CHANNELS 3 Zrotation Yrotation Xrotation
					JOINT Head
					{
						OFFSET 0.005152 0.064970 0.051349
						CHANNELS 3 Zrotation Yrotation Xrotation
						End Site
						{
							OFFSET 0.000000 0.000000 0.000000
						}
					}
				}
				JOINT LeftShoulder
				{
					OFFSET 0.078845 0.121749 -0.034090
					CHANNELS 3 Zrotation Yrotation Xrotation
					JOINT LeftArm
					{
						OFFSET 0.090977 0.030469 -0.008868
						CHANNELS 3 Zrotation Yrotation Xrotation
						JOINT LeftForeArm
						{
							OFFSET 0.259612 -0.012772 -0.027456
							CHANNELS 3 Zrotation Yrotation Xrotation
							JOINT LeftHand
							{
								OFFSET 0.249234 0.008986 -0.001171
								CHANNELS 3 Zrotation Yrotation Xrotation
								End Site
								{
									OFFSET 0.000000 0.000000 0.000000
								}
							}
						}
					}
				}
				JOINT RightShoulder
				{
					OFFSET -0.081759 0.118833 -0.038615
					CHANNELS 3 Zrotation Yrotation Xrotation
					JOINT RightArm
					{
						OFFSET -0.096012 0.032551 -0.009143
						CHANNELS 3 Zrotation Yrotation Xrotation
						JOINT RightForeArm
						{
							OFFSET -0.253742 -0.013329 -0.021401
							CHANNELS 3 Zrotation Yrotation Xrotation
							JOINT RightHand
							{
								OFFSET -0.255298 0.007772 -0.005559
								CHANNELS 3 Zrotation Yrotation Xrotation
								End Site
								{
									OFFSET 0.000000 0.000000 0.000000
								}
							}
						}
					}
				}
			}
		}
	}
}
MOTION
Frames: 10
Frame Time: 0.050000
-0.330053 0.936960 0.294285 2.051593 6.615591 8.973752 12.091086 -0.486413 -15.839994 -6.764543 0.688925 3.846067 6.220403 14.982140 10.501865 0.000000 0.000000 0.000000 -14.686950 0.123525 -6.249678 8.073604 -1.129574 3.628759 -14.038203 -27.854827 21.320344 0.000000 0.000000 0.000000 -4.387601 0.128669 3.455116 1.977275 0.354024 -28.223625 2.284536 -2.749149 25.321570 -6.143853 5.222503 -26.392312 0.000000 0.000000 0.000000 -25.595768 4.155466 -4.996121 -52.329507 -1.131566 -7.476055 -21.661133 -30.603537 7.512214 0.000000 0.000000 0.000000 17.044467 9.762891 4.594105 54.627625 -1.185564 -7.778526 13.338658 33.557149 5.406513 0.000000 0.000000 0.000000 
-0.332736 0.936750 0.293169 2.152179 7.197207 8.953417 11.759380 -0.538761 -15.577329 -6.568115 0.638573 2.992115 6.402081 15.445591 11.372032 0.000000 0.000000 0.000000 -14.466763 0.126204 -5.505997 7.596435 -1.028021 2.565925 -14.540460 -28.354409 22.210442 0.000000 0.000000 0.000000 -4.714306 0.146141 3.018023 1.828328 0.379544 -27.886023 2.068181 -2.761169 25.461732 -6.000713 5.215435 -25.640323 0.000000 0.000000 0.000000 -25.358884 4.182322 -5.100458 -52.669710 -0.846965 -7.635718 -21.672127 -30.979158 7.587925 0.000000 0.000000 0.000000 17.067234 9.655011 4.640961 55.346419 -0.645469 -7.656102 13.186417 33.286922 5.353312 0.000000 0.000000 0.000000 
-0.334313 0.936910 0.291429 2.217285 7.663017 9.060092 11.746924 -0.563971 -15.530870 -6.669503 0.627274 2.265278 6.435205 15.545550 11.471629 0.000000 0.000000 0.000000 -14.476183 0.111297 -5.393649 7.557832 -1.020151 2.218887 -14.853724 -28.715094 22.441732 0.000000 0.000000 0.000000 -4.951687 0.158880 3.047648 1.750140 0.393774 -27.750016 2.010779 -2.566167 25.299892 -5.906421 5.239403 -25.000412 0.000000 0.000000 0.000000 -24.674758 4.437226 -5.312999 -53.379822 -0.319176 -7.919972 -21.945885 -31.347264 7.717991 0.000000 0.000000 0.000000 17.150789 9.561551 4.714433 56.309347 -0.374533 -7.632450 12.155969 33.022251 5.045455 0.000000 0.000000 0.000000 
-0.334730 0.936969 0.288922 2.180952 7.961792 9.239873 11.825242 -0.580517 -16.086058 -6.686717 0.624199 2.301524 6.659416 15.982602 11.893957 0.000000 0.000000 0.000000 -14.313509 0.103936 -5.601551 7.588061 -1.027248 2.106164 -15.307884 -29.248851 22.827923 0.000000 0.000000 0.000000 -5.090597 0.167828 3.091364 1.885170 0.364410 -27.522752 2.014373 -2.098563 25.373131 -5.729756 5.239526 -24.734482 0.000000 0.000000 0.000000 -24.328076 4.269919 -5.368955 -53.718352 0.083120 -8.110786 -22.043592 -31.854142 7.817645 0.000000 0.000000 0.000000 17.065161 9.501075 4.845183 57.221021 0.573439 -7.298487 10.623690 32.618660 4.590662 0.000000 0.000000 0.000000 
-0.334310 0.936870 0.286037 2.129441 7.923266 9.572230 11.863435 -0.587917 -16.629668 -6.908904 0.648477 2.360839 6.710216 16.041649 11.728115 0.000000 0.000000 0.000000 -14.346489 0.098933 -6.139782 7.676230 -1.040725 2.139960 -15.401950 -29.432264 22.597605 0.000000 0.000000 0.000000 -5.174838 0.178356 3.313886 2.168855 0.307555 -27.484164 1.849334 -1.596502 25.413993 -5.550873 5.205993 -25.079249 0.000000 0.000000 0.000000 -24.100596 4.400527 -5.568344 -54.221344 0.690126 -8.427403 -22.024675 -32.451563 7.927193 0.000000 0.000000 0.000000 17.496790 9.592816 5.065901 57.770009 1.545608 -6.913957 9.327466 32.332970 4.222925 0.000000 0.000000 0.000000 
-0.333426 0.936410 0.283627 1.943976 7.905834 9.889801 12.037373 -0.585816 -17.399775 -6.782244 0.639568 2.556194 6.681308 16.048234 11.986018 0.000000 0.000000 0.000000 -14.163088 0.109570 -6.510408 7.755028 -1.045796 1.976315 -15.575760 -29.643280 22.744103 0.000000 0.000000 0.000000 -5.488284 0.201952 3.378744 2.697050 0.198006 -27.373827 1.865905 -1.294766 25.347963 -5.625324 5.287679 -25.076538 0.000000 0.000000 0.000000 -24.017932 4.299405 -5.600451 -54.402469 1.389970 -8.730039 -21.554199 -33.130733 7.923927 0.000000 0.000000 0.000000 18.030683 9.734104 5.277427 57.654886 2.556878 -6.436598 7.645776 32.022092 3.731465 0.000000 0.000000 0.000000 
-0.332077 0.936102 0.282539 1.712494 7.390343 10.082771 12.188401 -0.550047 -17.516792 -6.694804 0.629948 2.039999 6.756500 16.182237 12.409595 0.000000 0.000000 0.000000 -14.019375 0.137518 -6.923069 7.727014 -1.026757 1.909292 -15.834707 -29.985070 23.019163 0.000000 0.000000 0.000000 -5.624078 0.215079 3.152372 2.832469 0.161447 -27.124687 1.810672 -0.962453 25.211992 -5.330869 5.122788 -25.139550 0.000000 0.000000 0.000000 -23.446936 4.536256 -5.631629 -54.427370 2.329965 -9.145408 -21.640588 -33.019939 7.911473 0.000000 0.000000 0.000000 18.424594 9.874178 5.393172 57.943179 3.186250 -6.162945 7.037670 32.108369 3.586911 0.000000 0.000000 0.000000 
-0.329773 0.935689 0.282792 1.520850 7.094505 10.098418 12.235682 -0.529228 -17.271346 -6.560236 0.611002 1.504991 6.395476 15.540239 11.965536 0.000000 0.000000 0.000000 -13.802634 0.165720 -6.943911 7.562834 -0.994069 1.867929 -16.048215 -30.342369 22.891505 0.000000 0.000000 0.000000 -5.549990 0.213500 3.191339 2.798149 0.165349 -27.089916 1.967651 -0.657501 25.059437 -4.867065 4.876094 -24.975366 0.000000 0.000000 0.000000 -23.285110 4.727969 -5.751583 -54.015087 3.415592 -9.515553 -21.486285 -33.347343 7.917046 0.000000 0.000000 0.000000 18.278221 9.591185 5.236582 58.162650 3.745262 -5.881080 6.783866 31.475195 3.435093 0.000000 0.000000 0.000000 
-0.325961 0.935656 0.284133 1.362769 6.535211 9.974666 12.130178 -0.504611 -16.963126 -6.309294 0.594749 1.452813 6.268316 15.282267 11.886253 0.000000 0.000000 0.000000 -13.788165 0.191794 -6.848946 7.293349 -0.943178 1.878847 -16.037701 -30.307411 23.168252 0.000000 0.000000 0.000000 -5.299788 0.198737 2.956207 2.599336 0.205443 -27.233546 2.185994 -0.275793 25.243043 -4.547291 4.706598 -24.769525 0.000000 0.000000 0.000000 -23.088837 5.158100 -5.964731 -53.733171 4.329117 -9.870513 -20.565418 -33.172381 7.580674 0.000000 0.000000 0.000000 17.876478 9.364623 5.079256 58.284640 3.984436 -5.782405 6.907400 31.511274 3.483860 0.000000 0.000000 0.000000 
-0.320805 0.935212 0.285874 1.314192 6.009952 9.748211 11.641520 -0.513742 -16.715916 -6.015289 0.574184 1.489424 5.943947 14.629149 11.202910 0.000000 0.000000 0.000000 -14.154054 0.202897 -6.453546 7.007455 -0.891280 1.858057 -15.848262 -30.087669 23.163295 0.000000 0.000000 0.000000 -4.926957 0.175613 3.133536 2.385006 0.254041 -27.526571 2.296413 0.094480 25.348402 -4.186970 4.516789 -25.325387 0.000000 0.000000 0.000000 -23.190178 5.394843 -6.131555 -53.128452 5.503203 -10.237352 -20.738653 -33.221653 7.633149 0.000000 0.000000 0.000000 17.551428 9.341372 5.044269 58.472061 4.027483 -5.770983 6.630957 31.822717 3.462806 0.000000 0.000000 0.000000 
